<svg width="18" height="18" viewBox="0 0 18 18" fill="none" xmlns="http://www.w3.org/2000/svg">
<path d="M17.5 9C17.5 13.6944 13.6944 17.5 9 17.5C4.30558 17.5 0.5 13.6944 0.5 9C0.5 4.30558 4.30558 0.5 9 0.5C13.6944 0.5 17.5 4.30558 17.5 9Z" stroke="#19A58E"/>
<path fill-rule="evenodd" clip-rule="evenodd" d="M9.07527 2.76953C9.45762 2.76953 9.76758 3.07949 9.76758 3.46184L9.76758 14.5388C9.76758 14.9211 9.45762 15.2311 9.07527 15.2311C8.69292 15.2311 8.38296 14.9211 8.38296 14.5388L8.38296 3.46184C8.38296 3.07949 8.69292 2.76953 9.07527 2.76953Z" fill="#19A58E"/>
<path fill-rule="evenodd" clip-rule="evenodd" d="M2.76953 8.99992C2.76953 8.61757 3.07949 8.30762 3.46184 8.30762L14.5388 8.30762C14.9211 8.30762 15.2311 8.61757 15.2311 8.99992C15.2311 9.38228 14.9211 9.69223 14.5388 9.69223L3.46184 9.69223C3.07949 9.69223 2.76953 9.38228 2.76953 8.99992Z" fill="#19A58E"/>
</svg>
