<svg width="110" height="115" viewBox="0 0 110 115" fill="none" xmlns="http://www.w3.org/2000/svg">
<circle cx="55" cy="55" r="55" fill="#3F3F3F" fill-opacity="0.75"/>
<circle cx="54.9889" cy="34.2022" r="18.2022" fill="#DADADA"/>
<path d="M31.79 68.729C33.1389 63.1087 38.165 59.1461 43.9448 59.1461H68.0551C73.835 59.1461 78.8611 63.1087 80.21 68.729L85.112 89.1539C85.5647 91.0403 84.1349 92.854 82.1948 92.854H29.8052C27.8651 92.854 26.4353 91.0403 26.888 89.1539L31.79 68.729Z" fill="#DADADA"/>
<circle cx="87" cy="100" r="14" fill="#13A58E" stroke="white" stroke-width="2"/>
<path d="M88.0049 94.641L86.723 94.641L86.723 99.7231L81.6409 99.7231V101.005L86.723 101.005L86.723 106.087L88.0049 106.087L88.0049 101.005H93.087V99.7231H88.0049L88.0049 94.641Z" fill="white"/>
</svg>
